<?xml version="1.0" encoding="UTF-8" standalone="no"?>
<!-- Created with Inkscape (http://www.inkscape.org/) -->
<svg viewBox="0 0 950 262"
   xmlns:dc="http://purl.org/dc/elements/1.1/"
   xmlns:cc="http://web.resource.org/cc/"
   xmlns:rdf="http://www.w3.org/1999/02/22-rdf-syntax-ns#"
   xmlns:svg="http://www.w3.org/2000/svg"
   xmlns="http://www.w3.org/2000/svg"
   xmlns:sodipodi="http://sodipodi.sourceforge.net/DTD/sodipodi-0.dtd"
   xmlns:inkscape="http://www.inkscape.org/namespaces/inkscape"
  
  
   id="svg2"
   sodipodi:version="0.32"
   inkscape:version="0.44.1"
   version="1.0"
   sodipodi:docbase="D:\program\svg\ロゴ"
   sodipodi:docname="Yamaha logo.svg">
  <defs
     id="defs4" />
  <sodipodi:namedview
     id="base"
     pagecolor="#ffffff"
     bordercolor="#666666"
     borderopacity="1.0"
     gridtolerance="10000"
     guidetolerance="10"
     objecttolerance="10"
     inkscape:pageopacity="0.0"
     inkscape:pageshadow="2"
     inkscape:zoom="0.68002717"
     inkscape:cx="472.83953"
     inkscape:cy="76.303261"
     inkscape:document-units="px"
     inkscape:current-layer="layer1"
     inkscape:window-width="799"
     inkscape:window-height="571"
     inkscape:window-x="144"
     inkscape:window-y="60" />
  <metadata
     id="metadata7">
    <rdf:RDF>
      <cc:Work
         rdf:about="">
        <dc:format>image/svg+xml</dc:format>
        <dc:type
           rdf:resource="http://purl.org/dc/dcmitype/StillImage" />
      </cc:Work>
    </rdf:RDF>
  </metadata>
  <g
     inkscape:label="Layer 1"
     inkscape:groupmode="layer"
     id="layer1">
    <path
       style="fill:black;fill-rule:evenodd;stroke:black;stroke-width:1px;stroke-linecap:butt;stroke-linejoin:miter;stroke-opacity:1"
       d="M 9.9260736,16.053946 L 48.895105,15.686314 L 75.732267,105.38861 L 105.51049,16.053946 L 144.47952,15.686314 L 95.584416,151.34266 L 95.216783,245.08891 L 52.203796,245.82417 L 52.571428,152.44556 L 9.9260736,16.053946 z "
       id="path1900"
       sodipodi:nodetypes="cccccccccc" />
    <path
       style="fill:black;fill-rule:evenodd;stroke:black;stroke-width:1px;stroke-linecap:butt;stroke-linejoin:miter;stroke-opacity:1"
       d="M 175.375 16.0625 L 130.875 243.25 L 168 244.34375 L 176.84375 192.53125 L 225.71875 192.53125 L 234.1875 244.71875 L 275 244.71875 L 236.75 16.0625 L 175.375 16.0625 z M 201.46875 52.4375 L 220.59375 153.5625 L 184.1875 153.1875 L 201.46875 52.4375 z "
       id="path1902" />
    <path
       style="fill:black;fill-rule:evenodd;stroke:black;stroke-width:1px;stroke-linecap:butt;stroke-linejoin:miter;stroke-opacity:1"
       d="M 296.67932,16.421579 L 296.67932,243.61838 L 332.33966,243.61839 L 332.33966,71.198802 L 363.95604,221.56044 L 397.04296,221.92807 L 426.82118,70.831169 L 426.82118,243.98602 L 466.15784,243.98601 L 466.15785,14.215785 L 402.55744,14.215785 L 383.07293,125.24076 L 358.44156,16.421578 L 296.67932,16.421579 z "
       id="path1906"
       sodipodi:nodetypes="cccccccccccccc" />
    <path
       style="fill:black;fill-rule:evenodd;stroke:black;stroke-width:1px;stroke-linecap:butt;stroke-linejoin:miter;stroke-opacity:1"
       d="M 651.44455,245.08891 L 689.67832,245.82418 L 690.04596,141.78422 L 736.73526,141.78421 L 736.73526,244.35365 L 776.43956,244.72128 L 776.43956,14.215784 L 735.63237,14.215784 L 735.63236,104.65335 L 690.78122,104.65335 L 690.78122,14.215785 L 651.44455,13.848152 L 651.44455,245.08891 z "
       id="path1908"
       sodipodi:nodetypes="ccccccccccccc" />
    <path
       style="fill:black;fill-rule:evenodd;stroke:black;stroke-width:1px;stroke-linecap:butt;stroke-linejoin:miter;stroke-opacity:1"
       d="M 532.15625 15.96875 L 487.6875 243.1875 L 524.8125 244.28125 L 533.625 192.4375 L 582.53125 192.4375 L 590.96875 244.65625 L 631.78125 244.65625 L 593.5625 15.96875 L 532.15625 15.96875 z M 558.25 52.375 L 577.375 153.46875 L 540.96875 153.09375 L 558.25 52.375 z "
       id="path1910" />
    <path
       style="fill:black;fill-rule:evenodd;stroke:black;stroke-width:1px;stroke-linecap:butt;stroke-linejoin:miter;stroke-opacity:1"
       d="M 839.3125 16.40625 L 794.8125 243.625 L 831.9375 244.71875 L 840.78125 192.875 L 889.65625 192.875 L 898.125 245.09375 L 938.9375 245.09375 L 900.6875 16.40625 L 839.3125 16.40625 z M 865.40625 52.8125 L 884.53125 153.90625 L 848.125 153.5625 L 865.40625 52.8125 z "
       id="path1914" />
  </g>
</svg>
